<svg width="149" height="33" viewBox="0 0 149 33" fill="none" xmlns="http://www.w3.org/2000/svg">
<mask id="mask0_1_14" style="mask-type:luminance" maskUnits="userSpaceOnUse" x="0" y="0" width="149" height="33">
<path d="M148.771 0H0V32.3243H148.771V0Z" fill="white"/>
</mask>
<g mask="url(#mask0_1_14)">
<path d="M54.6454 1.11071H60.2717L69.8385 18.2019L79.405 1.11072H84.9095V29.1947H80.319V7.67043L71.9303 22.575H67.6244L59.2357 7.67043V29.1947H54.6454V1.11071Z" fill="white"/>
<path d="M99.7149 29.6947C97.5888 29.6947 95.72 29.2301 94.1088 28.3005C92.4974 27.3711 91.2414 26.0839 90.3411 24.439C89.4404 22.7941 88.9901 20.9084 88.9904 18.7821C88.9904 16.6291 89.4305 14.7234 90.3106 13.065C91.1907 11.4069 92.4128 10.1097 93.9768 9.17321C95.541 8.23736 97.3385 7.76931 99.3697 7.76904C101.387 7.76904 103.124 8.24043 104.58 9.18322C106.035 10.1262 107.155 11.4469 107.941 13.1452C108.726 14.8437 109.119 16.8364 109.119 19.1231V20.3666H93.5401C93.8246 22.0788 94.5254 23.4261 95.6425 24.4087C96.7596 25.3918 98.1711 25.8833 99.8772 25.8831C101.245 25.8831 102.423 25.6825 103.412 25.2813C104.4 24.8801 105.327 24.2717 106.194 23.456L108.632 26.4047C106.207 28.5982 103.235 29.695 99.7149 29.6947ZM103.066 13.0348C102.105 12.0654 100.845 11.5805 99.2883 11.5804C97.7715 11.5804 96.5022 12.0752 95.48 13.065C94.4573 14.0546 93.8108 15.3853 93.5401 17.0569H104.712C104.576 15.3451 104.028 14.0043 103.066 13.0348Z" fill="white"/>
<path d="M114.683 11.9833H110.458V8.27216H114.683V2.13385H119.111V8.27216H125.529V11.9833H119.111V21.3914C119.111 22.9559 119.382 24.0725 119.923 24.7413C120.465 25.4102 121.392 25.7446 122.706 25.7443C123.288 25.7443 123.782 25.721 124.189 25.6741C124.595 25.6275 125.042 25.5639 125.529 25.4835V29.1545C124.973 29.3134 124.406 29.4341 123.833 29.5157C123.177 29.6109 122.516 29.658 121.853 29.656C117.073 29.656 114.683 27.0749 114.683 21.913V11.9833Z" fill="white"/>
<path d="M148.606 29.1932H144.259V26.2644C143.487 27.3611 142.506 28.207 141.314 28.802C140.122 29.3967 138.768 29.6945 137.252 29.6947C135.383 29.6947 133.728 29.2233 132.286 28.2803C130.843 27.3375 129.709 26.0404 128.883 24.3888C128.057 22.7372 127.644 20.8482 127.644 18.7219C127.644 16.5822 128.064 14.6898 128.904 13.0448C129.743 11.4 130.904 10.1095 132.387 9.17321C133.87 8.23736 135.573 7.76931 137.495 7.76904C138.944 7.76904 140.244 8.0466 141.395 8.60167C142.531 9.14412 143.514 9.95342 144.259 10.9586V8.27066H148.606V29.1932ZM144.178 15.5925C143.704 14.4023 142.956 13.4628 141.933 12.7739C140.911 12.0853 139.729 11.741 138.389 11.741C136.493 11.741 134.983 12.3695 133.86 13.6265C132.736 14.8837 132.174 16.5821 132.174 18.7219C132.174 20.8752 132.715 22.5803 133.799 23.8372C134.882 25.0943 136.351 25.7228 138.206 25.7228C139.574 25.7228 140.792 25.375 141.862 24.6795C142.932 23.9844 143.704 23.0484 144.178 21.8712V15.5925Z" fill="white"/>
<path d="M13.0943 0.161343C13.0798 0.161343 13.0655 0.161394 13.051 0.161467L12.9918 4.9906C13.0053 4.99046 13.0189 4.99034 13.0324 4.99034C16.2509 4.99034 18.7473 7.49652 24.1732 16.5229L24.504 17.0724L24.5256 17.1083L27.5629 12.6075L27.542 12.5727C26.8272 11.4245 26.1404 10.3681 25.4819 9.40346C24.7181 8.28579 23.9876 7.28733 23.2787 6.39587C19.6893 1.8822 16.6867 0.161343 13.0943 0.161343Z" fill="url(#paint0_linear_1_14)"/>
<path d="M13.049 0.161467C9.43919 0.179807 6.24791 2.48512 3.94351 6.01274C3.93675 6.02306 3.93001 6.03341 3.92327 6.04378L8.15325 8.31758C8.16011 8.3073 8.167 8.29701 8.17391 8.28678C9.51953 6.28583 11.1941 5.00959 12.9898 4.9906C13.0033 4.99046 13.0168 4.99034 13.0304 4.99034L13.0923 0.161343C13.0778 0.161343 13.0634 0.161394 13.049 0.161467Z" fill="url(#paint1_linear_1_14)"/>
<path d="M3.94381 6.01395C3.93705 6.02427 3.93031 6.03461 3.92357 6.04498C2.40933 8.37296 1.28051 11.2297 0.67046 14.3115C0.667817 14.3249 0.665183 14.3382 0.66256 14.3516L5.41477 15.459C5.41723 15.4456 5.41974 15.4322 5.42225 15.4188C5.93018 12.7104 6.89726 10.1984 8.1535 8.31878C8.16039 8.30851 8.16727 8.29821 8.17418 8.28796L3.94381 6.01395Z" fill="url(#paint2_linear_1_14)"/>
<path d="M5.42543 15.422L0.673628 14.3147C0.670984 14.3281 0.668351 14.3414 0.665727 14.3548C0.333076 16.0497 0.163841 17.7719 0.16029 19.4983C0.160262 19.5123 0.160251 19.5262 0.160257 19.5402L5.03383 19.9708C5.03344 19.9568 5.03304 19.9429 5.0327 19.9289C5.03031 19.8288 5.02908 19.7273 5.02906 19.6244C5.03147 18.2283 5.16163 16.8352 5.41793 15.4622C5.42041 15.4488 5.4229 15.4354 5.42543 15.422Z" fill="url(#paint3_linear_1_14)"/>
<path d="M5.18206 21.4642C5.09464 20.968 5.04509 20.466 5.03383 19.9625C5.03344 19.9485 5.03304 19.9346 5.0327 19.9206L0.16029 19.49C0.160262 19.504 0.160251 19.5179 0.160257 19.5319V19.5346C0.160257 20.6091 0.250984 21.6151 0.42731 22.5445C0.42986 22.5579 0.432366 22.5711 0.434955 22.5845L5.18944 21.5044C5.18693 21.491 5.18449 21.4776 5.18206 21.4642Z" fill="url(#paint4_linear_1_14)"/>
<path d="M6.29328 23.9645C5.76295 23.3928 5.38763 22.5682 5.19032 21.5135C5.18781 21.5002 5.18537 21.4867 5.18294 21.4733L0.428185 22.5536C0.430735 22.5671 0.43324 22.5802 0.435827 22.5937C0.79521 24.4572 1.50002 26.0103 2.50937 27.1852C2.51835 27.1957 2.52735 27.2061 2.5364 27.2166L6.32161 23.9946C6.31214 23.9846 6.30265 23.9747 6.29328 23.9645Z" fill="url(#paint5_linear_1_14)"/>
<path d="M20.3782 10.6004C17.513 14.9408 15.7773 17.6632 15.7773 17.6632C11.9606 23.572 10.6402 24.8963 8.51519 24.8963C7.62849 24.8963 6.88774 24.5845 6.32022 23.9885C6.31078 23.9786 6.30127 23.9686 6.2919 23.9584L2.50801 27.1792C2.51699 27.1896 2.52599 27.2001 2.53501 27.2105C3.92871 28.8148 5.8959 29.7052 8.32954 29.7052C12.0114 29.7052 14.6595 27.9908 19.3671 19.8637C19.3671 19.8637 21.3295 16.4412 22.6795 14.0836C21.8433 12.7502 21.0822 11.5958 20.3782 10.6004Z" fill="#0082FB"/>
<path d="M25.486 3.75171C25.4762 3.76184 25.4663 3.77218 25.4567 3.78233C24.7043 4.57407 23.9822 5.45822 23.2797 6.3963C23.9886 7.28776 24.7205 8.28816 25.4843 9.40584C26.3845 8.03357 27.2248 6.92216 28.0483 6.07031C28.0581 6.06021 28.0677 6.0504 28.0776 6.04037L25.486 3.75171Z" fill="url(#paint6_linear_1_14)"/>
<path d="M39.3942 3.32489C37.396 1.33118 35.0134 0.161343 32.4664 0.161343C29.7806 0.161343 27.5215 1.61491 25.4837 3.75036C25.4742 3.76048 25.4643 3.77083 25.4547 3.78098L28.0463 6.06899C28.0561 6.05888 28.0657 6.04907 28.0753 6.03904C29.4177 4.66007 30.7168 3.97157 32.1568 3.97157C33.7067 3.97157 35.158 4.69218 36.4146 5.9555C36.4244 5.96541 36.4342 5.97522 36.4441 5.9852L39.4239 3.35457C39.4138 3.34461 39.404 3.3348 39.3942 3.32489Z" fill="#0082FB"/>
<path d="M45.1698 18.8577C45.0579 12.4563 42.7898 6.7335 39.4231 3.35393C39.413 3.34399 39.4032 3.33416 39.3931 3.32425L36.4138 5.95485C36.4236 5.96476 36.4334 5.97457 36.4433 5.98455C38.9761 8.55401 40.7131 13.3332 40.8712 18.8563C40.8715 18.8703 40.872 18.8842 40.8725 18.8981L45.1706 18.8994C45.1703 18.8855 45.1701 18.8716 45.1698 18.8577Z" fill="url(#paint7_linear_1_14)"/>
<path d="M45.1697 18.9025C45.1695 18.8886 45.1695 18.8747 45.1692 18.8607L40.8704 18.8594C40.8708 18.8733 40.8713 18.8872 40.8716 18.9011C40.8787 19.1603 40.8822 19.4211 40.8822 19.6835C40.8822 21.1893 40.6545 22.4066 40.1912 23.2855C40.1843 23.2985 40.1774 23.3116 40.1703 23.3244L43.3754 26.6164C43.3832 26.6045 43.3911 26.5926 43.399 26.5807C44.5626 24.8076 45.1734 22.3444 45.1734 19.3575C45.1734 19.2054 45.1722 19.0538 45.1697 18.9025Z" fill="url(#paint8_linear_1_14)"/>
<path d="M40.1927 23.2796C40.1859 23.2926 40.179 23.3057 40.1718 23.3186C39.771 24.0595 39.1991 24.5534 38.451 24.7696L39.9122 29.3171C40.1057 29.2522 40.2941 29.1794 40.4772 29.0985C40.5321 29.0745 40.5862 29.0497 40.64 29.0242C40.6713 29.0096 40.702 28.9946 40.7327 28.9795C41.6989 28.504 42.5153 27.8026 43.1755 26.8989C43.2159 26.8438 43.2559 26.7882 43.295 26.7314C43.3226 26.6915 43.3499 26.6512 43.3769 26.6107C43.3848 26.5985 43.3927 26.5866 43.4005 26.5747L40.1927 23.2796Z" fill="url(#paint9_linear_1_14)"/>
<path d="M37.5216 24.8885C37.0318 24.8885 36.5995 24.8166 36.1766 24.6298L34.6805 29.2856C35.5212 29.5693 36.4183 29.6973 37.4186 29.6973C38.3402 29.6973 39.1861 29.5608 39.9531 29.2985L38.4925 24.7525C38.1775 24.8455 37.8504 24.8914 37.5216 24.8885Z" fill="url(#paint10_linear_1_14)"/>
<path d="M34.5291 23.3069C34.52 23.2964 34.5107 23.2858 34.5013 23.2751L31.0592 26.8109C31.0688 26.8211 31.0784 26.8313 31.088 26.8412C32.284 28.1002 33.4262 28.881 34.7214 29.3096L36.2162 24.6572C35.6703 24.4258 35.1426 24.0061 34.5291 23.3069Z" fill="url(#paint11_linear_1_14)"/>
<path d="M34.4995 23.2685C33.467 22.0826 32.1895 20.1082 30.1805 16.9154L27.5622 12.6028L27.5413 12.568L24.5032 17.0677L24.5248 17.1036L26.3801 20.1859C28.1784 23.1579 29.6435 25.3081 31.0572 26.8041C31.0668 26.8143 31.0764 26.8245 31.0859 26.8347L34.5271 23.3002C34.518 23.2897 34.5086 23.2791 34.4995 23.2685Z" fill="url(#paint12_linear_1_14)"/>
</g>
<defs>
<linearGradient id="paint0_linear_1_14" x1="25.5441" y1="15.278" x2="15.6182" y2="2.10851" gradientUnits="userSpaceOnUse">
<stop offset="0.0006" stop-color="#0867DF"/>
<stop offset="0.4539" stop-color="#0668E1"/>
<stop offset="0.8591" stop-color="#0064E0"/>
</linearGradient>
<linearGradient id="paint1_linear_1_14" x1="5.91016" y1="6.82418" x2="12.7603" y2="1.5584" gradientUnits="userSpaceOnUse">
<stop offset="0.1323" stop-color="#0064DF"/>
<stop offset="0.9988" stop-color="#0064E0"/>
</linearGradient>
<linearGradient id="paint2_linear_1_14" x1="2.9802" y1="14.4321" x2="5.69424" y2="7.51433" gradientUnits="userSpaceOnUse">
<stop offset="0.0147" stop-color="#0072EC"/>
<stop offset="0.6881" stop-color="#0064DF"/>
</linearGradient>
<linearGradient id="paint3_linear_1_14" x1="2.60676" y1="19.4159" x2="2.91978" y2="15.2047" gradientUnits="userSpaceOnUse">
<stop offset="0.0731" stop-color="#007CF6"/>
<stop offset="0.9943" stop-color="#0072EC"/>
</linearGradient>
<linearGradient id="paint4_linear_1_14" x1="2.78322" y1="21.6948" x2="2.55924" y2="20.007" gradientUnits="userSpaceOnUse">
<stop offset="0.0731" stop-color="#007FF9"/>
<stop offset="1" stop-color="#007CF6"/>
</linearGradient>
<linearGradient id="paint5_linear_1_14" x1="2.64937" y1="22.1471" x2="4.05087" y2="25.157" gradientUnits="userSpaceOnUse">
<stop offset="0.0731" stop-color="#007FF9"/>
<stop offset="1" stop-color="#0082FB"/>
</linearGradient>
<linearGradient id="paint6_linear_1_14" x1="24.6342" y1="7.64507" x2="26.4944" y2="5.03999" gradientUnits="userSpaceOnUse">
<stop offset="0.2799" stop-color="#007FF8"/>
<stop offset="0.9141" stop-color="#0082FB"/>
</linearGradient>
<linearGradient id="paint7_linear_1_14" x1="39.009" y1="4.29531" x2="42.8743" y2="18.6924" gradientUnits="userSpaceOnUse">
<stop stop-color="#0082FB"/>
<stop offset="0.9995" stop-color="#0081FA"/>
</linearGradient>
<linearGradient id="paint8_linear_1_14" x1="43.9195" y1="19.2209" x2="41.4655" y2="24.242" gradientUnits="userSpaceOnUse">
<stop offset="0.0619" stop-color="#0081FA"/>
<stop offset="1" stop-color="#0080F9"/>
</linearGradient>
<linearGradient id="paint9_linear_1_14" x1="39.4275" y1="26.8611" x2="41.7494" y2="25.2597" gradientUnits="userSpaceOnUse">
<stop stop-color="#027AF3"/>
<stop offset="1" stop-color="#0080F9"/>
</linearGradient>
<linearGradient id="paint10_linear_1_14" x1="35.7578" y1="27.1636" x2="39.0101" y2="27.1636" gradientUnits="userSpaceOnUse">
<stop stop-color="#0377EF"/>
<stop offset="0.9994" stop-color="#0279F1"/>
</linearGradient>
<linearGradient id="paint11_linear_1_14" x1="32.9312" y1="25.4052" x2="35.2542" y2="26.7891" gradientUnits="userSpaceOnUse">
<stop offset="0.0019" stop-color="#0471E9"/>
<stop offset="1" stop-color="#0377EF"/>
</linearGradient>
<linearGradient id="paint12_linear_1_14" x1="25.7971" y1="15.3812" x2="33.173" y2="24.7711" gradientUnits="userSpaceOnUse">
<stop offset="0.2765" stop-color="#0867DF"/>
<stop offset="1" stop-color="#0471E9"/>
</linearGradient>
</defs>
</svg>
